<?xml version="1.0" encoding="UTF-8" standalone="no"?><!DOCTYPE svg PUBLIC "-//W3C//DTD SVG 1.1//EN" "http://www.w3.org/Graphics/SVG/1.1/DTD/svg11.dtd"><svg width="100%" height="100%" viewBox="0 0 131 42" version="1.1" xmlns="http://www.w3.org/2000/svg" xmlns:xlink="http://www.w3.org/1999/xlink" xml:space="preserve" xmlns:serif="http://www.serif.com/" style="fill-rule:evenodd;clip-rule:evenodd;stroke-linejoin:round;stroke-miterlimit:2;"><g id="Layer_1"><g><path d="M78.3,15.3l0,2.1l3.8,0c0.1,0.1 0.1,0.2 0.1,0.5c0,0.4 -0.1,0.6 -0.4,0.6l-4.2,0c-0.3,0 -0.5,-0.1 -0.5,-0.5l0,-6.8c0.1,-0.1 0.3,-0.1 0.5,-0.1l4.4,0c0.1,0.1 0.1,0.2 0.1,0.5c0,0.3 -0.1,0.6 -0.4,0.6l-3.5,0l0,2l3.2,0c0.1,0.1 0.1,0.3 0.1,0.5c0,0.4 -0.1,0.6 -0.4,0.6l-2.8,0Z" style="fill:#0083ca;fill-rule:nonzero;"/><path d="M84.7,14.2c0.5,-0.6 1,-0.9 1.7,-0.9c0.8,-0 1.5,0.5 1.5,1.7l0,2.5c0,0.2 0.1,0.3 0.2,0.3l0.4,0l0,0.3c0,0.3 -0.3,0.5 -1,0.5c-0.6,0 -0.8,-0.2 -0.8,-0.9l0,-2.4c0,-0.5 -0.3,-0.8 -0.7,-0.8c-0.5,0 -0.9,0.3 -1.3,0.7l0,3.3c-0.1,0.1 -0.3,0.1 -0.7,0.1c-0.3,0 -0.5,-0.1 -0.5,-0.6l0,-3.3c0,-0.2 -0.1,-0.3 -0.3,-0.3l-0.3,0c-0.1,-0.1 -0.1,-0.3 -0.1,-0.5c0,-0.4 0.3,-0.6 0.9,-0.6c0.5,0 0.9,0.3 1,0.9" style="fill:#0083ca;fill-rule:nonzero;"/><path d="M90.2,16.2c0.1,1 0.6,1.4 1.3,1.4c0.7,0 1.4,-0.2 1.7,-0.4c0.1,0.1 0.2,0.2 0.2,0.5c0,0.3 -0.1,0.4 -0.3,0.5c-0.3,0.2 -0.8,0.5 -1.7,0.5c-1.4,0 -2.3,-1.1 -2.3,-2.7c0,-1.8 1.2,-2.7 2.4,-2.7c1.3,0 2,1 2,2.3c0,0.2 0,0.5 -0.1,0.7l-3.2,0l-0,-0.1Zm0.1,-0.8l2.2,0c-0,-0.7 -0.3,-1.2 -1,-1.2c-0.5,0 -1.1,0.4 -1.2,1.2" style="fill:#0083ca;fill-rule:nonzero;"/><path d="M96,14.1c0.4,-0.5 1,-0.9 1.5,-0.9c0.6,0 1,0.3 1,1c0,0.6 -0.3,0.9 -0.7,0.9c-0.2,0 -0.3,-0.1 -0.4,-0.1c0,-0.3 -0.1,-0.5 -0.4,-0.5c-0.3,0 -0.7,0.2 -1,0.5l0,3.4c-0.1,0.1 -0.3,0.1 -0.6,0.1c-0.3,0 -0.5,-0.1 -0.5,-0.5l0,-3.3c0,-0.2 -0.1,-0.3 -0.3,-0.3l-0.4,0c-0.1,-0.2 -0.1,-0.3 -0.1,-0.5c0,-0.3 0.3,-0.5 0.9,-0.5c0.5,-0.1 0.9,0.1 1,0.7" style="fill:#0083ca;fill-rule:nonzero;"/><path d="M102.8,14.2c0.2,0.3 0.2,0.6 0.2,1.1c0,1.4 -0.9,2 -2,2c-0.3,-0 -0.6,-0 -0.8,-0.1c-0.1,0.1 -0.1,0.3 -0.1,0.4c0,0.3 0.2,0.5 0.7,0.5l1.5,-0c0.8,-0 1.3,0.4 1.3,1.2c0,1.2 -1,2 -2.5,2c-1.2,-0 -2.1,-0.5 -2.1,-1.1c0,-0.2 0.1,-0.4 0.3,-0.6c0.4,0.4 0.9,0.7 1.7,0.7c1,-0 1.6,-0.4 1.6,-0.8c0,-0.2 -0.2,-0.4 -0.5,-0.4l-1.5,-0c-1.1,-0 -1.5,-0.4 -1.5,-1.1c0,-0.5 0.2,-0.9 0.5,-1.2c-0.3,-0.3 -0.5,-0.8 -0.5,-1.5c0,-1.4 0.9,-2 2,-2c0.5,-0 0.9,0.1 1.2,0.3c0.1,-0.1 0.2,-0.2 0.4,-0.2l0.8,-0c0.1,0.1 0.1,0.2 0.1,0.4c0,0.2 0,0.5 -0.4,0.5l-0.4,-0.1Zm-1.7,2.1c0.5,0 0.8,-0.3 0.8,-1.1c0,-0.8 -0.3,-1.1 -0.8,-1.1c-0.5,0 -0.9,0.3 -0.9,1.1c0,0.9 0.4,1.1 0.9,1.1" style="fill:#0083ca;fill-rule:nonzero;"/><path d="M107.2,17.1c0,0.2 0.1,0.2 0.2,0.3c0.5,-1.1 1.1,-2.3 1.1,-2.8c0,-0.2 -0.1,-0.3 -0.3,-0.3l-0.4,0c0,-0.1 -0.1,-0.2 -0.1,-0.4c0,-0.3 0.4,-0.5 0.8,-0.5c0.7,0 1,0.3 1,0.9c0,1 -1.2,3.5 -1.9,4.8c-0.7,1.1 -1.4,1.4 -2.3,1.4c-0.5,0 -0.8,-0.2 -0.8,-0.5c0,-0.1 0,-0.2 0.1,-0.4l0.9,0c0.4,0 0.8,-0.2 1.2,-0.9c0.1,-0.1 0.1,-0.2 0.2,-0.3c-0.3,-0.1 -0.5,-0.3 -0.6,-0.6l-1.2,-3.2c-0.1,-0.2 -0.1,-0.2 -0.3,-0.2l-0.4,0c-0.1,-0.1 -0.1,-0.3 -0.1,-0.4c0,-0.3 0.3,-0.5 0.9,-0.5c0.5,0 0.7,0.2 0.9,0.7l1.1,2.9Z" style="fill:#0083ca;fill-rule:nonzero;"/><path d="M114.2,13.3l1.2,0c0.1,0.1 0.1,0.2 0.1,0.4c0,0.2 -0.1,0.6 -0.5,0.6l-0.8,0l0,3.9c0,0.3 -0.3,0.4 -0.7,0.4c-0.2,0 -0.4,-0.1 -0.5,-0.1l0,-4.1l-0.6,0c-0.1,-0.1 -0.1,-0.2 -0.1,-0.4c0,-0.3 0.1,-0.5 0.5,-0.5l0.2,0l0,-0.8c0,-1.1 0.5,-1.5 1.4,-1.5c1,0 1.2,0.2 1.2,0.6c0,0.2 -0.1,0.4 -0.1,0.5l-0.7,0c-0.4,0 -0.6,0.1 -0.6,0.6l-0,0.4Z" style="fill:#0083ca;fill-rule:nonzero;"/><path d="M118.4,13.2c1.4,-0 2.4,0.8 2.4,2.7c0,1.9 -1,2.7 -2.4,2.7c-1.4,-0 -2.4,-0.8 -2.4,-2.7c0,-1.9 1,-2.7 2.4,-2.7m0,4.4c0.7,0 1.2,-0.4 1.2,-1.6c0,-1.2 -0.5,-1.7 -1.2,-1.7c-0.7,0 -1.3,0.5 -1.3,1.7c0.1,1.2 0.6,1.6 1.3,1.6" style="fill:#0083ca;fill-rule:nonzero;"/><path d="M123.3,14.1c0.4,-0.5 1,-0.9 1.5,-0.9c0.6,0 1,0.3 1,1c0,0.6 -0.3,0.9 -0.7,0.9c-0.2,0 -0.3,-0.1 -0.4,-0.1c0,-0.3 -0.1,-0.5 -0.4,-0.5c-0.3,0 -0.7,0.2 -0.9,0.5l0,3.4c-0.1,0.1 -0.3,0.1 -0.6,0.1c-0.3,0 -0.5,-0.1 -0.5,-0.5l0,-3.3c0,-0.2 -0.1,-0.3 -0.3,-0.3l-0.4,0c-0.1,-0.2 -0.1,-0.3 -0.1,-0.5c0,-0.3 0.3,-0.5 0.9,-0.5c0.4,-0.1 0.8,0.1 0.9,0.7" style="fill:#0083ca;fill-rule:nonzero;"/><path d="M80.4,24.3c0.1,0.3 0.2,0.6 0.2,1.1c0,1.4 -0.9,2 -2,2c-0.3,0 -0.6,0 -0.8,-0.1c-0.1,0.1 -0.1,0.3 -0.1,0.4c0,0.3 0.2,0.5 0.7,0.5l1.5,0c0.8,0 1.3,0.4 1.3,1.2c0,1.2 -1,2 -2.5,2c-1.2,0 -2.1,-0.5 -2.1,-1.1c0,-0.2 0.1,-0.4 0.3,-0.6c0.4,0.4 0.9,0.7 1.7,0.7c1,0 1.6,-0.4 1.6,-0.8c0,-0.2 -0.1,-0.4 -0.5,-0.4l-1.5,0c-1.1,0 -1.5,-0.4 -1.5,-1.1c0,-0.5 0.2,-0.9 0.5,-1.2c-0.3,-0.3 -0.5,-0.8 -0.5,-1.5c0,-1.4 0.9,-2 2,-2c0.5,0 0.9,0.1 1.2,0.3c0.1,-0.1 0.2,-0.2 0.4,-0.2l0.8,0c0.1,0.1 0.1,0.2 0.1,0.4c0,0.2 0,0.5 -0.4,0.5l-0.4,0l0,-0.1Zm-1.8,2.2c0.5,0 0.8,-0.3 0.8,-1.1c-0,-0.8 -0.3,-1.1 -0.8,-1.1c-0.5,0 -0.9,0.3 -0.9,1.1c0.1,0.8 0.4,1.1 0.9,1.1" style="fill:#0083ca;fill-rule:nonzero;"/><path d="M82.9,26.3c0.1,1 0.6,1.4 1.3,1.4c0.7,0 1.4,-0.2 1.7,-0.4c0.1,0.1 0.2,0.2 0.2,0.5c0,0.3 -0.1,0.4 -0.3,0.5c-0.3,0.2 -0.8,0.5 -1.7,0.5c-1.4,0 -2.3,-1.1 -2.3,-2.7c0,-1.8 1.2,-2.7 2.4,-2.7c1.3,0 2,1 2,2.3c0,0.2 0,0.5 -0.1,0.7l-3.2,0l-0,-0.1Zm-0,-0.8l2.2,0c-0,-0.7 -0.3,-1.2 -1,-1.2c-0.5,0 -1,0.4 -1.2,1.2" style="fill:#0083ca;fill-rule:nonzero;"/><path d="M88.7,24.3c0.5,-0.6 1,-0.9 1.7,-0.9c0.8,0 1.4,0.5 1.4,1.7l0,2.5c0,0.2 0.1,0.3 0.2,0.3l0.4,0c0,0.1 0.1,0.1 0.1,0.3c0,0.3 -0.3,0.5 -1,0.5c-0.5,0 -0.8,-0.2 -0.8,-0.9l0,-2.4c0,-0.5 -0.3,-0.9 -0.7,-0.9c-0.5,0 -1,0.3 -1.3,0.7l0,3.3c-0.1,0.1 -0.4,0.1 -0.7,0.1c-0.3,0 -0.5,-0.1 -0.5,-0.6l0,-3.3c0,-0.2 -0.1,-0.3 -0.3,-0.3l-0.3,0c-0.1,-0.1 -0.1,-0.3 -0.1,-0.5c0,-0.4 0.3,-0.5 0.9,-0.5c0.6,-0 1,0.4 1,0.9" style="fill:#0083ca;fill-rule:nonzero;"/><path d="M94.3,26.3c0.1,1 0.6,1.4 1.3,1.4c0.7,0 1.4,-0.2 1.7,-0.4c0.1,0.1 0.2,0.2 0.2,0.5c0,0.3 -0.1,0.4 -0.3,0.5c-0.3,0.2 -0.8,0.5 -1.7,0.5c-1.4,0 -2.3,-1.1 -2.3,-2.7c0,-1.8 1.2,-2.7 2.4,-2.7c1.3,0 2,1 2,2.3c0,0.2 0,0.5 -0.1,0.7l-3.2,0l-0,-0.1Zm-0,-0.8l2.2,0c-0,-0.7 -0.3,-1.2 -1,-1.2c-0.5,0 -1,0.4 -1.2,1.2" style="fill:#0083ca;fill-rule:nonzero;"/><path d="M100,24.2c0.4,-0.5 1,-0.9 1.5,-0.9c0.6,0 1,0.3 1,1c0,0.6 -0.3,0.9 -0.7,0.9c-0.2,0 -0.3,-0.1 -0.4,-0.1c0,-0.3 -0.1,-0.5 -0.4,-0.5c-0.3,0 -0.7,0.2 -1,0.5l0,3.4c-0.1,0.1 -0.3,0.1 -0.6,0.1c-0.3,0 -0.5,-0.1 -0.5,-0.5l0,-3.3c0,-0.2 -0.1,-0.3 -0.3,-0.3l-0.4,0c-0.1,-0.2 -0.1,-0.3 -0.1,-0.5c0,-0.3 0.3,-0.5 0.9,-0.5c0.6,-0.1 0.9,0.1 1,0.7" style="fill:#0083ca;fill-rule:nonzero;"/><path d="M103.3,24.2c0,-0.6 1.1,-0.9 1.8,-0.9c1.1,0 1.9,0.5 1.9,1.7l0,2.5c0,0.2 0.1,0.3 0.2,0.3l0.3,0c0,0 0.1,0.2 0.1,0.3c0,0.3 -0.2,0.4 -0.8,0.4c-0.4,0 -0.7,-0.3 -0.7,-0.6c-0.5,0.4 -1.1,0.8 -1.7,0.8c-1,0 -1.4,-0.7 -1.4,-1.6c0,-0.9 0.5,-1.5 1.6,-1.5l1.5,-0.1l0,-0.1c0,-0.8 -0.4,-1 -1,-1c-0.6,0 -1.2,0.1 -1.5,0.3c-0.2,-0.1 -0.3,-0.3 -0.3,-0.5m2.7,3l0,-0.9l-1.5,0.1c-0.5,0.1 -0.6,0.3 -0.6,0.7c0,0.4 0.2,0.7 0.6,0.7c0.5,0 0.9,-0.2 1.5,-0.6" style="fill:#0083ca;fill-rule:nonzero;"/><path d="M109.7,24.4l0,2.6c0,0.5 0.2,0.7 0.6,0.7l1,-0c0,0.1 0.1,0.2 0.1,0.3c0,0.3 -0.2,0.6 -1.4,0.6c-0.7,-0 -1.3,-0.3 -1.3,-1.4l0,-2.8l-0.7,-0c-0.1,-0.1 -0.1,-0.2 -0.1,-0.4c0,-0.3 0.1,-0.5 0.4,-0.5l0.3,-0l0,-1.3c0.1,-0.1 0.3,-0.1 0.6,-0.1c0.3,-0 0.5,0.1 0.5,0.5l0,0.9l1.4,-0c0.1,0.1 0.1,0.2 0.1,0.4c0,0.2 -0.1,0.6 -0.5,0.6l-1,-0.1Z" style="fill:#0083ca;fill-rule:nonzero;"/><path d="M113.8,24.5l0,3c0,0.2 0.1,0.3 0.2,0.3l0.3,0c0,0.1 0.1,0.2 0.1,0.3c0,0.3 -0.2,0.5 -0.9,0.5c-0.6,0 -0.9,-0.2 -0.9,-0.9l0,-2.9c0,-0.2 -0.1,-0.3 -0.3,-0.3l-0.3,0c-0.1,-0.1 -0.1,-0.2 -0.1,-0.4c0,-0.4 0.3,-0.6 0.8,-0.6c0.7,-0.1 1.1,0.1 1.1,1m-0.7,-3.1c0.4,-0 0.7,0.2 0.7,0.7c0,0.5 -0.2,0.7 -0.7,0.7c-0.4,-0 -0.7,-0.2 -0.7,-0.7c0,-0.5 0.3,-0.7 0.7,-0.7" style="fill:#0083ca;fill-rule:nonzero;"/><path d="M117.5,23.3c1.4,0 2.4,0.8 2.4,2.7c0,1.9 -1,2.7 -2.4,2.7c-1.4,0 -2.4,-0.8 -2.4,-2.7c-0.1,-1.8 1,-2.7 2.4,-2.7m0,4.4c0.7,-0 1.2,-0.4 1.2,-1.6c0,-1.2 -0.5,-1.7 -1.2,-1.7c-0.7,-0 -1.3,0.5 -1.3,1.7c0,1.2 0.6,1.6 1.3,1.6" style="fill:#0083ca;fill-rule:nonzero;"/><path d="M122.5,24.3c0.5,-0.6 1,-0.9 1.7,-0.9c0.8,0 1.4,0.5 1.4,1.7l0,2.5c0,0.2 0.1,0.3 0.2,0.3l0.4,0c0,0.1 0.1,0.1 0.1,0.3c0,0.3 -0.3,0.5 -1,0.5c-0.5,0 -0.8,-0.2 -0.8,-0.9l0,-2.4c0,-0.5 -0.3,-0.9 -0.7,-0.9c-0.5,0 -1,0.3 -1.3,0.7l0,3.3c-0.1,0.1 -0.3,0.1 -0.6,0.1c-0.3,0 -0.5,-0.1 -0.5,-0.6l0,-3.3c0,-0.2 -0.1,-0.3 -0.3,-0.3l-0.4,0c-0.1,-0.1 -0.1,-0.3 -0.1,-0.5c0,-0.4 0.3,-0.5 0.9,-0.5c0.5,-0 0.9,0.4 1,0.9" style="fill:#0083ca;fill-rule:nonzero;"/><path d="M130.8,24.2c0,0.3 -0.1,0.5 -0.2,0.6c-0.3,-0.2 -1,-0.4 -1.6,-0.4c-0.6,0 -0.8,0.2 -0.8,0.5c0,0.3 0.3,0.5 1,0.6c1.3,0.2 1.8,0.7 1.8,1.6c0,1 -0.6,1.6 -1.9,1.6c-1.3,0 -2,-0.4 -2,-0.9c0,-0.3 0.1,-0.5 0.2,-0.6c0.4,0.2 1.1,0.5 1.7,0.5c0.7,0 1,-0.2 1,-0.5c0,-0.3 -0.3,-0.5 -1,-0.6c-1.3,-0.2 -1.8,-0.7 -1.8,-1.6c0,-0.9 0.6,-1.6 1.9,-1.6c1.2,-0.1 1.7,0.4 1.7,0.8" style="fill:#0083ca;fill-rule:nonzero;"/></g><g><path d="M49.9,40.4c0,0 -6.7,1.4 -17.2,1.4l-1.2,0c-10.5,0 -17.2,-1.4 -17.2,-1.4c-13.1,-2 -14,-11.5 -14,-17l-0,-4.7c-0,-5.5 0.9,-15 14,-17c-0,0 6.7,-1.4 17.2,-1.4l1.2,0c10.5,0 17.2,1.4 17.2,1.4c13.1,2 14,11.5 14,17l0,4.7c-0,5.4 -0.9,15 -14,17Z" style="fill:url(#_Linear1);fill-rule:nonzero;"/><path d="M49.1,20.5l0.1,-0.1c0.4,-0.7 0.6,-1.5 0.6,-2.3c0,-2.2 -1.8,-4.5 -4.8,-4.5l-13.5,0c-2.9,0.1 -5,1.8 -5,4.3c0,1.1 0.4,2.1 1.2,2.9c0.2,0.2 0.4,0.4 0.7,0.6c0.3,0.2 0.6,0.4 0.9,0.6c0.4,0.2 0.9,0.4 1.4,0.6c0.2,0.1 1.4,0.4 1.7,0.5c0.1,0 0.2,0.1 0.4,0.1l0.1,0l-0.1,0c0.2,0.1 0.3,0.2 0.4,0.3l0.2,0.2l0,0.5c0,0.1 0,0.4 -0.3,0.7l-0.1,0.1l-0.1,0l0.1,-0c-0.1,0.1 -0.3,0.1 -0.5,0.1l-17.9,-0c-0.3,-0 -1.1,-0 -1.1,1.4c-0,0.9 0.1,1.4 0.2,1.7l-0,0.1l18.4,-0c3,-0 5.1,-1.8 5.1,-4.3c-0,-1.1 -0.4,-2.1 -1.2,-2.9c-0.2,-0.2 -0.4,-0.4 -0.6,-0.6c-0.3,-0.2 -0.6,-0.4 -1,-0.6c-0.4,-0.2 -0.9,-0.4 -1.4,-0.6c-0.2,-0.1 -1.4,-0.4 -1.7,-0.5c-0.1,-0 -0.2,-0.1 -0.4,-0.1c-0.1,-0.1 -0.3,-0.2 -0.4,-0.3l-0.2,-0.2l-0,-0.5c-0,-0.1 -0,-0.4 0.3,-0.6l0.2,-0.2l0.1,-0c0.1,-0.1 0.3,-0.1 0.5,-0.1l14,-0c0.9,0.1 1.2,0.9 1.2,1.2c-0,0.6 -0.3,1.2 -1.5,1.3l-5.2,-0c-0.3,-0 -1.1,-0 -1.1,1.5c-0,0.9 0.1,1.4 0.2,1.7l-0,0.1l6.9,-0c1.3,0.1 1.5,0.8 1.5,1.3c-0,0.3 -0.3,1.2 -1.5,1.2l-6.1,-0c-0.3,-0 -1.1,-0 -1.1,1.5c-0,0.9 0.1,1.4 0.2,1.7l-0,0.1l6.9,-0c3,-0 4.8,-2.3 4.8,-4.5c-0,-1.3 -0.5,-2.5 -1.4,-3.3l-0.1,-0.1Z" style="fill:url(#_Linear2);fill-rule:nonzero;"/><path d="M32.8,23.1l0,0Z" style="fill:url(#_Linear3);fill-rule:nonzero;"/><path d="M49.9,1.6c0,0 -6.7,-1.4 -17.2,-1.4l-1.2,0c-10.5,0 -17.2,1.4 -17.2,1.4c-13.1,2 -14,11.5 -14,17l-0,4.7c-0,5.5 0.9,15 14,17c-0,0 6.7,1.4 17.2,1.4l1.2,0c10.5,0 17.2,-1.4 17.2,-1.4c13.1,-2 14,-11.5 14,-17l0,-4.7c-0,-5.5 -0.9,-15 -14,-17Zm-4,26.9l-6.9,0l-0,-0.1c-0.1,-0.3 -0.2,-0.8 -0.2,-1.7c-0,-1.5 0.8,-1.5 1.1,-1.5l6.1,0c1.2,0 1.5,-0.9 1.5,-1.2c-0,-0.6 -0.3,-1.2 -1.5,-1.3l-6.9,0l-0,-0.1c-0.1,-0.3 -0.2,-0.8 -0.2,-1.7c-0,-1.5 0.8,-1.5 1.1,-1.5l5.2,0c1.3,-0.1 1.5,-0.8 1.5,-1.3c-0,-0.3 -0.3,-1.1 -1.2,-1.2l-14,0c-0.2,0 -0.3,0.1 -0.5,0.1l-0.1,0l-0.2,0.2c-0.2,0.2 -0.3,0.5 -0.3,0.6l-0,0.5l0.2,0.2c0.1,0.1 0.2,0.2 0.4,0.3c0.1,0.1 0.2,0.1 0.4,0.1c0.4,0.1 1.5,0.4 1.7,0.5c0.5,0.2 0.9,0.3 1.4,0.6c0.3,0.2 0.7,0.4 1,0.6c0.2,0.2 0.4,0.4 0.6,0.6c0.8,0.8 1.2,1.8 1.2,2.9c-0,2.5 -2.1,4.2 -5.1,4.3l-18.4,0l-0,-0.1c-0.1,-0.3 -0.2,-0.8 -0.2,-1.7c-0,-1.4 0.8,-1.4 1.1,-1.4l17.8,0c0.2,0 0.4,-0.1 0.5,-0.1l0.2,0l0.1,-0.1c0.2,-0.2 0.3,-0.5 0.3,-0.7l-0,-0.5l-0.2,-0.2c-0.1,-0.1 -0.2,-0.2 -0.4,-0.3c-0.1,-0.1 -0.2,-0.1 -0.4,-0.1c-0.4,-0.1 -1.5,-0.4 -1.7,-0.5c-0.5,-0.2 -0.9,-0.3 -1.4,-0.6c-0.3,-0.2 -0.6,-0.4 -0.9,-0.6c-0.2,-0.2 -0.5,-0.4 -0.7,-0.6c-0.8,-0.8 -1.2,-1.8 -1.2,-2.9c-0,-2.5 2,-4.2 5,-4.3l13.5,0c3,0 4.8,2.3 4.8,4.5c0,0.8 -0.2,1.6 -0.6,2.3l-0.1,0.1l0.1,0.1c0.9,0.8 1.4,2.1 1.4,3.3c-0.1,2.1 -1.9,4.5 -4.9,4.5Z" style="fill:url(#_Linear4);fill-rule:nonzero;"/></g><g><path d="M13.8,22.7l0,-0.1c-0.1,-0.3 -0.2,-0.8 -0.2,-1.7c0,-1.5 0.8,-1.5 1.1,-1.5l10,0l0,0.1c0.2,0.4 0.3,1 0.3,1.7c0,1 -0.4,1.5 -1.5,1.5l-9.7,0Z" style="fill:#fff;fill-rule:nonzero;"/><path d="M13.8,16.8l0,-0.1c-0.1,-0.3 -0.2,-0.8 -0.2,-1.7c0,-1.5 0.8,-1.5 1.1,-1.5l10,0l0,0.1c0.2,0.4 0.3,1 0.3,1.7c0,1.1 -0.4,1.5 -1.5,1.5l-9.7,0Z" style="fill:#fff;fill-rule:nonzero;"/><path d="M49.3,20.6l-0.1,-0.1l0.1,-0.1c0.4,-0.7 0.6,-1.5 0.6,-2.3c-0,-2.2 -1.8,-4.5 -4.8,-4.5l-13.5,0c-2.9,0.1 -5,1.8 -5,4.3c-0,1.1 0.4,2.1 1.2,2.9c0.2,0.2 0.4,0.4 0.7,0.6c0.3,0.2 0.6,0.4 0.9,0.6c0.4,0.2 0.9,0.4 1.4,0.6c0.2,0.1 1.4,0.4 1.7,0.5c0.1,0 0.2,0.1 0.4,0.1c0.4,0.2 0.7,0.6 0.7,1c-0,0.1 -0,0.4 -0.3,0.7c-0.2,0.2 -0.6,0.3 -1,0.4l-17.7,0c-0.3,0 -1.1,0 -1.1,1.5c-0,0.9 0.1,1.4 0.2,1.7l-0,0.1l18.4,0c3,0 5.1,-1.8 5.1,-4.3c-0,-1.1 -0.4,-2.1 -1.2,-2.9c-0.2,-0.2 -0.4,-0.4 -0.6,-0.6c-0.3,-0.2 -0.6,-0.4 -1,-0.6c-0.4,-0.2 -0.9,-0.4 -1.4,-0.6c-0.2,-0.1 -1.4,-0.4 -1.7,-0.5c-0.1,0 -0.2,-0.1 -0.4,-0.1c-0.4,-0.2 -0.7,-0.6 -0.7,-1c-0,-0.1 -0,-0.4 0.3,-0.7c0.2,-0.2 0.5,-0.3 1,-0.4l13.8,0c0.9,0.1 1.2,0.9 1.2,1.2c-0,0.6 -0.3,1.2 -1.5,1.3l-5.2,0c-0.3,0 -1.1,0 -1.1,1.5c-0,0.9 0.1,1.4 0.2,1.7l-0,0.1l6.9,0c1.3,0.1 1.5,0.8 1.5,1.3c-0,0.3 -0.3,1.2 -1.5,1.2l-6.1,0c-0.3,0 -1.1,0 -1.1,1.5c-0,0.9 0.1,1.4 0.2,1.7l-0,0.1l6.9,0c3,0 4.8,-2.3 4.8,-4.5c0.2,-1.3 -0.3,-2.5 -1.2,-3.4" style="fill:#fff;fill-rule:nonzero;"/></g><g><path d="M31,18.9m0,-0c-0.1,-0.1 -0.3,-0.2 -0.4,-0.3l-0.2,-0.2l-0,-0.5c-0.1,0.4 0.2,0.8 0.6,1m-0.7,-1c-0,-0.1 -0,-0.4 0.3,-0.6c-0.3,0.2 -0.3,0.4 -0.3,0.6m0.3,-0.7l0.2,-0.2l0.1,-0c0.1,-0.1 0.3,-0.1 0.5,-0.1c-0.4,-0 -0.6,0.1 -0.8,0.3" style="fill:none;fill-rule:nonzero;"/></g></g><g id="Layer_2"><path d="M38.998,13.6l-6.9,-0c-1.9,0.2 -2.7,1.6 -2.8,2.7c-0.1,1.6 1.118,2.487 1.618,2.687c-0.4,-0.2 -0.7,-0.5 -0.7,-1c0,-0.1 0,-0.4 0.3,-0.6c0.2,-0.2 0.5,-0.3 0.8,-0.4l0.2,0l7.482,-0.087c0.6,-0.2 0.8,-1 0.8,-1.7c-0,-0.7 -0.2,-1.5 -0.8,-1.6Z" style="fill:url(#_Linear5);fill-rule:nonzero;"/><path d="M25,28.6l6.9,0c1.9,-0.2 2.7,-1.7 2.8,-2.8c0.1,-1.6 -1.292,-2.395 -1.8,-2.6c0.4,0.2 0.69,0.587 0.7,1c0.002,0.1 0,0.4 -0.3,0.6c-0.2,0.2 -0.699,0.401 -0.999,0.501l-7.5,-0c-0.6,0.2 -0.601,0.899 -0.601,1.599c-0,0.7 0.2,1.6 0.8,1.7Z" style="fill:url(#_Linear6);fill-rule:nonzero;"/></g><defs><linearGradient id="_Linear1" x1="0" y1="0" x2="1" y2="0" gradientUnits="userSpaceOnUse" gradientTransform="matrix(48.3783,-29.027,29.027,48.3783,6.50664,36.3723)"><stop offset="0" style="stop-color:#110352;stop-opacity:1"/><stop offset="0.06" style="stop-color:#0a1d65;stop-opacity:1"/><stop offset="0.15" style="stop-color:#033c7a;stop-opacity:1"/><stop offset="0.2" style="stop-color:#004782;stop-opacity:1"/><stop offset="0.6" style="stop-color:#0067a6;stop-opacity:1"/><stop offset="1" style="stop-color:#00b3f0;stop-opacity:1"/></linearGradient><linearGradient id="_Linear2" x1="0" y1="0" x2="1" y2="0" gradientUnits="userSpaceOnUse" gradientTransform="matrix(57.832,-34.6992,34.6992,57.832,3.65636,41.974)"><stop offset="0" style="stop-color:#110352;stop-opacity:1"/><stop offset="0.06" style="stop-color:#0a1d65;stop-opacity:1"/><stop offset="0.15" style="stop-color:#033c7a;stop-opacity:1"/><stop offset="0.2" style="stop-color:#004782;stop-opacity:1"/><stop offset="0.6" style="stop-color:#0067a6;stop-opacity:1"/><stop offset="1" style="stop-color:#00b3f0;stop-opacity:1"/></linearGradient><linearGradient id="_Linear3" x1="0" y1="0" x2="1" y2="0" gradientUnits="userSpaceOnUse" gradientTransform="matrix(57.832,-34.6992,34.6992,57.832,3.07748,41.0092)"><stop offset="0" style="stop-color:#110352;stop-opacity:1"/><stop offset="0.06" style="stop-color:#0a1d65;stop-opacity:1"/><stop offset="0.15" style="stop-color:#033c7a;stop-opacity:1"/><stop offset="0.2" style="stop-color:#004782;stop-opacity:1"/><stop offset="0.6" style="stop-color:#0067a6;stop-opacity:1"/><stop offset="1" style="stop-color:#00b3f0;stop-opacity:1"/></linearGradient><linearGradient id="_Linear4" x1="0" y1="0" x2="1" y2="0" gradientUnits="userSpaceOnUse" gradientTransform="matrix(57.832,-34.6992,34.6992,57.832,1.93948,39.1126)"><stop offset="0" style="stop-color:#110352;stop-opacity:1"/><stop offset="0.06" style="stop-color:#0a1d65;stop-opacity:1"/><stop offset="0.15" style="stop-color:#033c7a;stop-opacity:1"/><stop offset="0.2" style="stop-color:#004782;stop-opacity:1"/><stop offset="0.6" style="stop-color:#0067a6;stop-opacity:1"/><stop offset="1" style="stop-color:#00b3f0;stop-opacity:1"/></linearGradient><linearGradient id="_Linear5" x1="0" y1="0" x2="1" y2="0" gradientUnits="userSpaceOnUse" gradientTransform="matrix(7.6342,-5.481,5.481,7.6342,29.5961,19.2792)"><stop offset="0" style="stop-color:#0067a6;stop-opacity:1"/><stop offset="0.51" style="stop-color:#fff;stop-opacity:1"/><stop offset="1" style="stop-color:#fff;stop-opacity:1"/></linearGradient><linearGradient id="_Linear6" x1="0" y1="0" x2="1" y2="0" gradientUnits="userSpaceOnUse" gradientTransform="matrix(-7.9896,6.7503,-6.7503,-7.9896,33.5186,22.8682)"><stop offset="0" style="stop-color:#0067a6;stop-opacity:1"/><stop offset="0.46" style="stop-color:#fff;stop-opacity:1"/><stop offset="1" style="stop-color:#fff;stop-opacity:1"/></linearGradient></defs></svg>
