<?xml version="1.0" encoding="UTF-8" standalone="no"?><!DOCTYPE svg PUBLIC "-//W3C//DTD SVG 1.1//EN" "http://www.w3.org/Graphics/SVG/1.1/DTD/svg11.dtd"><svg width="100%" height="100%" viewBox="0 0 677 677" version="1.1" xmlns="http://www.w3.org/2000/svg" xmlns:xlink="http://www.w3.org/1999/xlink" xml:space="preserve" xmlns:serif="http://www.serif.com/" style="fill-rule:evenodd;clip-rule:evenodd;stroke-linejoin:round;stroke-miterlimit:2;"><rect x="-0" y="0" width="677" height="677" style="fill:url(#_Linear1);"/><g><path d="M151.942,413.269c-1.87,0 -3.286,0.253 -4.144,0.657l-0,31.285c-0,2.679 1.415,3.437 3.385,3.437c1.921,-0 3.134,-0.304 4.095,-0.809l-0,-31.992c-0,-1.971 -1.517,-2.578 -3.336,-2.578Z" style="fill:#fff;fill-rule:nonzero;"/><path d="M184.218,446.727c0.808,1.163 1.971,1.921 3.587,1.921c1.971,-0 3.236,-0.253 3.841,-0.607l0,-32.245c0,-1.971 -2.173,-2.577 -3.891,-2.577c-1.768,-0 -2.881,0.353 -3.638,0.96l0.202,20.924l-13.445,-19.913c-0.656,-1.011 -1.819,-1.921 -3.487,-1.921c-1.567,0 -3.083,0.253 -4.043,0.657l0,31.335c0,2.982 1.617,3.437 3.184,3.437c1.719,-0 3.841,-0.354 4.296,-0.808l-0.353,-20.975l13.747,19.812Z" style="fill:#fff;fill-rule:nonzero;"/><path d="M221.61,420.244c1.466,-0 2.274,-1.719 2.274,-3.993c-0,-1.466 -0.456,-2.477 -0.808,-2.982l-23.805,0c-2.579,0 -3.337,1.718 -3.337,3.437c0,1.364 0.354,2.577 0.809,3.538l9.552,-0l0,25.017c0,2.629 1.416,3.387 3.135,3.387c2.021,-0 3.385,-0.202 4.144,-0.607l-0,-27.797l8.036,-0Z" style="fill:#fff;fill-rule:nonzero;"/><path d="M248.307,434.193c1.263,-0 2.072,-1.314 2.072,-3.589c0,-1.465 -0.454,-2.83 -0.809,-3.335l-13.645,-0l-0,-7.025l14.656,-0c1.465,-0 2.274,-1.719 2.274,-3.993c0,-1.466 -0.454,-2.477 -0.809,-2.982l-20.114,0c-1.87,0 -2.831,0.253 -3.488,0.657l0,31.335c0,2.982 1.618,3.387 3.185,3.387l18.952,-0c1.465,-0 2.274,-1.719 2.274,-3.993c0,-1.466 -0.454,-2.477 -0.809,-2.982l-16.121,-0l-0,-7.48l12.382,-0Z" style="fill:#fff;fill-rule:nonzero;"/><path d="M262.638,413.269c-1.619,0 -2.983,0.152 -3.741,0.556l0,31.436c0,2.982 1.769,3.387 3.689,3.387c1.365,-0 3.184,-0.253 3.791,-0.708l0,-13.545l4.144,-0c4.245,5.863 5.104,14.253 11.371,14.253c3.387,-0 4.903,-1.618 4.903,-3.993c0,-1.264 -0.253,-2.022 -0.607,-2.426l-1.92,-0c-2.728,-0 -4.751,-5.155 -7.227,-8.643c3.79,-1.465 7.075,-4.852 7.075,-9.956c0,-7.682 -5.559,-10.361 -10.866,-10.361l-10.613,0Zm9.602,5.863c2.527,-0 4.802,1.718 4.802,4.599c0,3.133 -2.073,4.953 -5.509,4.953l-5.155,-0l0,-9.552l5.862,-0Z" style="fill:#fff;fill-rule:nonzero;"/><path d="M313.728,446.727c0.808,1.163 1.971,1.921 3.587,1.921c1.971,-0 3.236,-0.253 3.841,-0.607l0,-32.245c0,-1.971 -2.173,-2.577 -3.892,-2.577c-1.767,-0 -2.88,0.353 -3.637,0.96l0.202,20.924l-13.445,-19.913c-0.656,-1.011 -1.82,-1.921 -3.487,-1.921c-1.566,0 -3.082,0.253 -4.043,0.657l-0,31.335c-0,2.982 1.618,3.437 3.184,3.437c1.719,-0 3.841,-0.354 4.296,-0.808l-0.353,-20.975l13.747,19.812Z" style="fill:#fff;fill-rule:nonzero;"/><path d="M329.337,448.648c2.476,-0 3.639,-0.607 4.245,-2.477l1.415,-4.296l13.039,-0l1.365,3.689c0.757,2.326 2.325,3.084 4.346,3.084c1.365,-0 3.032,-0.253 3.791,-1.567l-11.776,-31.335c-0.556,-1.466 -1.719,-2.477 -3.892,-2.477c-2.375,0 -3.336,0.556 -4.397,1.163l-11.776,33.205c0.707,0.707 1.719,1.011 3.639,1.011Zm11.877,-25.069l4.498,12.079l-8.591,0l4.094,-12.079Z" style="fill:#fff;fill-rule:nonzero;"/><path d="M380.436,420.244c1.466,-0 2.274,-1.719 2.274,-3.993c0,-1.466 -0.454,-2.477 -0.808,-2.982l-23.805,0c-2.577,0 -3.336,1.718 -3.336,3.437c0,1.364 0.354,2.577 0.809,3.538l9.552,-0l0,25.017c0,2.629 1.415,3.387 3.134,3.387c2.021,-0 3.386,-0.202 4.144,-0.607l0,-27.797l8.036,-0Z" style="fill:#fff;fill-rule:nonzero;"/><path d="M391.416,413.269c-1.87,0 -3.285,0.253 -4.144,0.657l-0,31.285c-0,2.679 1.414,3.437 3.385,3.437c1.922,-0 3.135,-0.304 4.095,-0.809l-0,-31.992c-0,-1.971 -1.516,-2.578 -3.337,-2.578Z" style="fill:#fff;fill-rule:nonzero;"/><path d="M400.797,431.009c0,12.786 6.671,18.144 15.213,18.144c8.49,-0 15.212,-5.105 15.212,-18.144c0,-12.989 -6.57,-18.245 -15.263,-18.245c-8.339,-0 -15.162,5.256 -15.162,18.245Zm7.378,0.202c0,-8.744 3.791,-11.928 7.784,-11.928c4.245,0 7.783,3.184 7.783,11.928c0,8.743 -3.285,11.675 -7.733,11.675c-3.942,-0 -7.834,-3.134 -7.834,-11.675Z" style="fill:#fff;fill-rule:nonzero;"/><path d="M458.143,446.727c0.807,1.163 1.97,1.921 3.588,1.921c1.97,-0 3.234,-0.253 3.84,-0.607l0,-32.245c0,-1.971 -2.173,-2.577 -3.891,-2.577c-1.769,-0 -2.88,0.353 -3.639,0.96l0.202,20.924l-13.443,-19.913c-0.658,-1.011 -1.819,-1.921 -3.487,-1.921c-1.567,0 -3.084,0.253 -4.043,0.657l-0,31.335c-0,2.982 1.617,3.437 3.184,3.437c1.717,-0 3.841,-0.354 4.295,-0.808l-0.353,-20.975l13.746,19.812Z" style="fill:#fff;fill-rule:nonzero;"/><path d="M473.752,448.648c2.476,-0 3.639,-0.607 4.245,-2.477l1.414,-4.296l13.04,-0l1.364,3.689c0.759,2.326 2.326,3.084 4.347,3.084c1.365,-0 3.033,-0.253 3.791,-1.567l-11.776,-31.335c-0.555,-1.466 -1.718,-2.477 -3.891,-2.477c-2.376,0 -3.336,0.556 -4.397,1.163l-11.776,33.205c0.707,0.707 1.718,1.011 3.639,1.011Zm11.877,-25.069l4.498,12.079l-8.592,0l4.094,-12.079Z" style="fill:#fff;fill-rule:nonzero;"/><path d="M510.451,413.269c-1.617,0 -2.982,0.303 -3.689,0.607l0,31.537c0,2.376 1.213,3.235 3.184,3.235l15.414,-0c3.033,-0 3.843,-1.719 3.843,-3.993c-0,-1.466 -0.456,-2.477 -0.81,-2.982l-14.15,-0l-0,-25.877c-0,-1.971 -2.124,-2.527 -3.792,-2.527Z" style="fill:#fff;fill-rule:nonzero;"/></g><g><g><path d="M406.876,382.269c-0,0 -25.737,5.378 -66.071,5.378l-4.61,0c-40.334,0 -66.071,-5.378 -66.071,-5.378c-50.322,-7.682 -53.779,-44.175 -53.779,-65.302l0,-18.055c0,-21.127 3.457,-57.62 53.779,-65.303c0,0 25.737,-5.378 66.071,-5.378l4.61,0c40.334,0 66.071,5.378 66.071,5.378c50.322,7.683 53.779,44.176 53.779,65.303l-0,18.055c-0,20.743 -3.457,57.62 -53.779,65.302Z" style="fill:url(#_Linear2);fill-rule:nonzero;"/><path d="M403.803,305.827l0.384,-0.384c1.537,-2.689 2.305,-5.763 2.305,-8.836c-0,-8.451 -6.915,-17.286 -18.439,-17.286l-51.858,0c-11.14,0.384 -19.207,6.915 -19.207,16.518c0,4.226 1.537,8.067 4.61,11.14c0.768,0.768 1.537,1.537 2.689,2.305c1.152,0.768 2.305,1.536 3.457,2.305c1.537,0.768 3.457,1.536 5.378,2.304c0.768,0.385 5.378,1.537 6.53,1.921c0.385,0 0.769,0.384 1.537,0.384l0.384,0l-0.384,0c0.768,0.384 1.152,0.769 1.536,1.153l0.769,0.768l-0,1.921c-0,0.384 -0,1.536 -1.153,2.689l-0.384,0.384l-0.384,-0l0.384,-0c-0.384,0.384 -1.152,0.384 -1.92,0.384l-68.761,-0c-1.152,-0 -4.225,-0 -4.225,5.378c-0,3.457 0.384,5.378 0.768,6.53l0,0.384l70.681,0c11.524,0 19.591,-6.914 19.591,-16.518c-0,-4.225 -1.537,-8.066 -4.61,-11.14c-0.768,-0.768 -1.536,-1.536 -2.305,-2.304c-1.152,-0.769 -2.304,-1.537 -3.841,-2.305c-1.536,-0.768 -3.457,-1.537 -5.378,-2.305c-0.768,-0.384 -5.378,-1.537 -6.53,-1.921c-0.384,0 -0.768,-0.384 -1.537,-0.384c-0.384,-0.384 -1.152,-0.768 -1.536,-1.152l-0.768,-0.768l-0,-1.921c-0,-0.384 -0,-1.537 1.152,-2.305l0.768,-0.768l0.384,-0c0.385,-0.384 1.153,-0.384 1.921,-0.384l53.779,-0c3.457,0.384 4.61,3.457 4.61,4.609c-0,2.305 -1.153,4.61 -5.762,4.994l-19.975,0c-1.153,0 -4.226,0 -4.226,5.762c0,3.457 0.384,5.378 0.768,6.53l0,0.384l26.506,0c4.993,0.385 5.762,3.074 5.762,4.994c-0,1.153 -1.153,4.61 -5.762,4.61l-23.433,-0c-1.152,-0 -4.225,-0 -4.225,5.762c-0,3.457 0.384,5.378 0.768,6.53l0,0.384l26.505,0c11.524,0 18.439,-8.835 18.439,-17.286c-0,-4.994 -1.921,-9.603 -5.378,-12.676l-0.384,-0.384Z" style="fill:url(#_Linear3);fill-rule:nonzero;"/><path d="M406.876,233.225c-0,0 -25.737,-5.378 -66.071,-5.378l-4.61,0c-40.334,0 -66.071,5.378 -66.071,5.378c-50.322,7.683 -53.779,44.176 -53.779,65.303l0,18.054c0,21.128 3.457,57.621 53.779,65.303c0,0 25.737,5.378 66.071,5.378l4.61,0c40.334,0 66.071,-5.378 66.071,-5.378c50.322,-7.682 53.779,-44.175 53.779,-65.303l-0,-18.054c-0,-21.127 -3.457,-57.62 -53.779,-65.303Zm-15.365,103.332l-26.506,0l0,-0.384c-0.384,-1.152 -0.768,-3.073 -0.768,-6.53c0,-5.762 3.073,-5.762 4.225,-5.762l23.433,-0c4.609,-0 5.762,-3.457 5.762,-4.61c-0,-2.304 -1.153,-4.609 -5.762,-4.993l-26.506,-0l0,-0.385c-0.384,-1.152 -0.768,-3.073 -0.768,-6.53c0,-5.762 3.073,-5.762 4.226,-5.762l19.975,0c4.993,-0.384 5.762,-3.073 5.762,-4.994c-0,-1.152 -1.153,-4.225 -4.61,-4.609l-53.779,-0c-0.768,-0 -1.152,0.384 -1.92,0.384l-0.385,-0l-0.768,0.768c-0.768,0.768 -1.152,1.921 -1.152,2.305l-0,1.921l0.768,0.768c0.384,0.384 0.768,0.768 1.537,1.152c0.384,0.384 0.768,0.384 1.536,0.384c1.537,0.385 5.762,1.537 6.53,1.921c1.921,0.768 3.458,1.153 5.378,2.305c1.153,0.768 2.689,1.537 3.842,2.305c0.768,0.768 1.536,1.536 2.304,2.305c3.073,3.073 4.61,6.914 4.61,11.139c-0,9.604 -8.067,16.134 -19.591,16.518l-70.681,0l0,-0.384c-0.384,-1.152 -0.768,-3.073 -0.768,-6.53c0,-5.378 3.073,-5.378 4.226,-5.378l68.376,-0c0.768,-0 1.536,-0.384 1.92,-0.384l0.768,-0l0.385,-0.384c0.768,-0.769 1.152,-1.921 1.152,-2.689l0,-1.921l-0.768,-0.768c-0.384,-0.384 -0.769,-0.768 -1.537,-1.153c-0.384,-0.384 -0.768,-0.384 -1.536,-0.384c-1.537,-0.384 -5.762,-1.536 -6.531,-1.92c-1.92,-0.769 -3.457,-1.153 -5.378,-2.305c-1.152,-0.768 -2.304,-1.537 -3.457,-2.305c-0.768,-0.768 -1.92,-1.537 -2.689,-2.305c-3.073,-3.073 -4.609,-6.914 -4.609,-11.14c-0,-9.603 7.682,-16.133 19.206,-16.518l51.859,0c11.524,0 18.438,8.836 18.438,17.287c0,3.073 -0.768,6.146 -2.305,8.835l-0.384,0.384l0.384,0.384c3.457,3.073 5.378,8.067 5.378,12.676c-0.384,8.067 -7.298,17.286 -18.822,17.286Z" style="fill:url(#_Linear4);fill-rule:nonzero;"/></g><g><path d="M268.203,314.278l0,-0.385c-0.384,-1.152 -0.768,-3.073 -0.768,-6.53c0,-5.762 3.073,-5.762 4.226,-5.762l38.413,0l0,0.384c0.768,1.537 1.152,3.842 1.152,6.531c0,3.841 -1.536,5.762 -5.762,5.762l-37.261,-0Z" style="fill:#fff;fill-rule:nonzero;"/><path d="M268.203,291.614l0,-0.384c-0.384,-1.153 -0.768,-3.074 -0.768,-6.531c0,-5.762 3.073,-5.762 4.226,-5.762l38.413,0l0,0.384c0.768,1.537 1.152,3.842 1.152,6.531c0,4.225 -1.536,5.762 -5.762,5.762l-37.261,-0Z" style="fill:#fff;fill-rule:nonzero;"/><path d="M404.571,306.211l-0.384,-0.384l0.384,-0.384c1.537,-2.689 2.305,-5.763 2.305,-8.836c-0,-8.451 -6.914,-17.286 -18.439,-17.286l-51.858,0c-11.14,0.384 -19.206,6.915 -19.206,16.518c-0,4.226 1.536,8.067 4.609,11.14c0.768,0.768 1.537,1.537 2.689,2.305c1.153,0.768 2.305,1.536 3.457,2.305c1.537,0.768 3.458,1.536 5.378,2.304c0.769,0.385 5.378,1.537 6.531,1.921c0.384,0 0.768,0.384 1.536,0.384c1.537,0.769 2.689,2.305 2.689,3.842c0,0.384 0,1.536 -1.152,2.689c-0.769,0.768 -2.305,1.152 -3.842,1.536l-67.992,0c-1.152,0 -4.225,0 -4.225,5.762c-0,3.457 0.384,5.378 0.768,6.53l0,0.385l70.681,-0c11.524,-0 19.591,-6.915 19.591,-16.518c-0,-4.226 -1.537,-8.067 -4.61,-11.14c-0.768,-0.768 -1.536,-1.537 -2.305,-2.305c-1.152,-0.768 -2.304,-1.536 -3.841,-2.305c-1.536,-0.768 -3.457,-1.536 -5.378,-2.305c-0.768,-0.384 -5.378,-1.536 -6.53,-1.92c-0.384,-0 -0.768,-0.384 -1.537,-0.384c-1.536,-0.769 -2.689,-2.305 -2.689,-3.842c0,-0.384 0,-1.536 1.153,-2.689c0.768,-0.768 1.921,-1.152 3.841,-1.536l53.011,-0c3.457,0.384 4.609,3.457 4.609,4.609c0,2.305 -1.152,4.61 -5.762,4.994l-19.975,0c-1.152,0 -4.225,0 -4.225,5.762c-0,3.457 0.384,5.378 0.768,6.53l0,0.385l26.505,-0c4.994,0.384 5.762,3.073 5.762,4.993c0,1.153 -1.152,4.61 -5.762,4.61l-23.432,-0c-1.152,-0 -4.225,-0 -4.225,5.762c-0,3.457 0.384,5.378 0.768,6.53l0,0.384l26.505,0c11.524,0 18.439,-8.835 18.439,-17.286c0.768,-4.993 -1.153,-9.603 -4.61,-13.06" style="fill:#fff;fill-rule:nonzero;"/></g><g><path d="M334.275,299.68c-0.385,-0.384 -1.153,-0.768 -1.537,-1.152l-0.768,-0.768l-0,-1.921c-0.384,1.537 0.768,3.073 2.305,3.841m-2.689,-3.841c-0,-0.384 -0,-1.536 1.152,-2.305c-1.152,0.769 -1.152,1.537 -1.152,2.305m1.152,-2.689l0.768,-0.768l0.384,-0c0.385,-0.384 1.153,-0.384 1.921,-0.384c-1.536,-0 -2.305,0.384 -3.073,1.152" style="fill:none;fill-rule:nonzero;"/></g><path d="M364.998,279.321l-26.506,0c-7.298,0.769 -10.371,6.147 -10.755,10.372c-0.385,6.146 4.294,9.553 6.215,10.322c-1.537,-0.769 -2.689,-1.921 -2.689,-3.842c-0,-0.384 -0,-1.536 1.152,-2.304c0.769,-0.769 1.921,-1.153 3.073,-1.537l0.769,-0l28.741,-0.334c2.304,-0.768 3.073,-3.842 3.073,-6.53c-0,-2.689 -0.769,-5.763 -3.073,-6.147Z" style="fill:url(#_Linear5);fill-rule:nonzero;"/><path d="M311.226,336.942l26.506,-0c7.298,-0.769 10.371,-6.531 10.755,-10.756c0.385,-6.146 -4.963,-9.2 -6.914,-9.988c1.537,0.769 2.651,2.255 2.689,3.842c0.008,0.384 0,1.536 -1.152,2.304c-0.769,0.769 -2.685,1.541 -3.838,1.925l-28.81,-0c-2.305,0.768 -2.309,3.453 -2.309,6.142c0,2.689 0.769,6.146 3.073,6.531Z" style="fill:url(#_Linear6);fill-rule:nonzero;"/></g><defs><linearGradient id="_Linear1" x1="0" y1="0" x2="1" y2="0" gradientUnits="userSpaceOnUse" gradientTransform="matrix(677,0,0,677,-1.42109e-14,338.5)"><stop offset="0" style="stop-color:#110352;stop-opacity:1"/><stop offset="1" style="stop-color:#02b1f0;stop-opacity:1"/></linearGradient><linearGradient id="_Linear2" x1="0" y1="0" x2="1" y2="0" gradientUnits="userSpaceOnUse" gradientTransform="matrix(185.838,-111.503,111.503,185.838,240.187,366.798)"><stop offset="0" style="stop-color:#110352;stop-opacity:1"/><stop offset="0.06" style="stop-color:#0a1d65;stop-opacity:1"/><stop offset="0.15" style="stop-color:#033c7a;stop-opacity:1"/><stop offset="0.2" style="stop-color:#004782;stop-opacity:1"/><stop offset="0.6" style="stop-color:#0067a6;stop-opacity:1"/><stop offset="1" style="stop-color:#00b3f0;stop-opacity:1"/></linearGradient><linearGradient id="_Linear3" x1="0" y1="0" x2="1" y2="0" gradientUnits="userSpaceOnUse" gradientTransform="matrix(222.153,-133.292,133.292,222.153,229.238,388.316)"><stop offset="0" style="stop-color:#110352;stop-opacity:1"/><stop offset="0.06" style="stop-color:#0a1d65;stop-opacity:1"/><stop offset="0.15" style="stop-color:#033c7a;stop-opacity:1"/><stop offset="0.2" style="stop-color:#004782;stop-opacity:1"/><stop offset="0.6" style="stop-color:#0067a6;stop-opacity:1"/><stop offset="1" style="stop-color:#00b3f0;stop-opacity:1"/></linearGradient><linearGradient id="_Linear4" x1="0" y1="0" x2="1" y2="0" gradientUnits="userSpaceOnUse" gradientTransform="matrix(222.153,-133.292,133.292,222.153,222.643,377.324)"><stop offset="0" style="stop-color:#110352;stop-opacity:1"/><stop offset="0.06" style="stop-color:#0a1d65;stop-opacity:1"/><stop offset="0.15" style="stop-color:#033c7a;stop-opacity:1"/><stop offset="0.2" style="stop-color:#004782;stop-opacity:1"/><stop offset="0.6" style="stop-color:#0067a6;stop-opacity:1"/><stop offset="1" style="stop-color:#00b3f0;stop-opacity:1"/></linearGradient><linearGradient id="_Linear5" x1="0" y1="0" x2="1" y2="0" gradientUnits="userSpaceOnUse" gradientTransform="matrix(29.3256,-21.0544,21.0544,29.3256,328.882,301.137)"><stop offset="0" style="stop-color:#0067a6;stop-opacity:1"/><stop offset="0.51" style="stop-color:#fff;stop-opacity:1"/><stop offset="1" style="stop-color:#fff;stop-opacity:1"/></linearGradient><linearGradient id="_Linear6" x1="0" y1="0" x2="1" y2="0" gradientUnits="userSpaceOnUse" gradientTransform="matrix(-30.6908,25.9302,-25.9302,-30.6908,343.949,314.924)"><stop offset="0" style="stop-color:#0067a6;stop-opacity:1"/><stop offset="0.46" style="stop-color:#fff;stop-opacity:1"/><stop offset="1" style="stop-color:#fff;stop-opacity:1"/></linearGradient></defs></svg>
